<svg id="Grupo_313" data-name="Grupo 313" xmlns="http://www.w3.org/2000/svg" xmlns:xlink="http://www.w3.org/1999/xlink" width="198.59" height="198.59" viewBox="0 0 198.59 198.59">
  <defs>
    <clipPath id="clip-path">
      <rect id="Retângulo_198" data-name="Retângulo 198" width="198.59" height="198.59" fill="none"/>
    </clipPath>
    <clipPath id="clip-path-3">
      <rect id="Retângulo_193" data-name="Retângulo 193" width="195.604" height="195.604" fill="none"/>
    </clipPath>
    <clipPath id="clip-path-4">
      <rect id="Retângulo_194" data-name="Retângulo 194" width="138.926" height="138.926" fill="none"/>
    </clipPath>
    <clipPath id="clip-path-5">
      <rect id="Retângulo_195" data-name="Retângulo 195" width="27.625" height="27.639" fill="none"/>
    </clipPath>
    <clipPath id="clip-path-6">
      <rect id="Retângulo_196" data-name="Retângulo 196" width="43.149" height="43.149" fill="none"/>
    </clipPath>
  </defs>
  <g id="Grupo_312" data-name="Grupo 312" clip-path="url(#clip-path)">
    <g id="Grupo_311" data-name="Grupo 311">
      <g id="Grupo_310" data-name="Grupo 310" clip-path="url(#clip-path)">
        <path id="Caminho_2238" data-name="Caminho 2238" d="M198.59,99.3A99.295,99.295,0,1,1,99.3,0,99.294,99.294,0,0,1,198.59,99.3" transform="translate(0 0)" fill="#004e9a"/>
        <path id="Caminho_2239" data-name="Caminho 2239" d="M170.205,103.883A66.323,66.323,0,1,1,103.882,37.56a66.323,66.323,0,0,1,66.323,66.323" transform="translate(-4.588 -4.588)" fill="#fff"/>
        <rect id="Retângulo_187" data-name="Retângulo 187" width="2.495" height="10.973" transform="translate(11.385 91.711) rotate(-84.256)" fill="#fff"/>
        <path id="Caminho_2240" data-name="Caminho 2240" d="M12.446,120.567l6.313-7.442-6.2.219-.08-2.252,11.332-.4,0,.026-6.3,7.442,6.189-.218.08,2.251-11.332.4Z" transform="translate(-1.52 -13.521)" fill="#fff"/>
        <path id="Caminho_2241" data-name="Caminho 2241" d="M14.218,132.108l10.1-7.226.507,2.5L20.8,130.209c-.226.155-.444.309-.659.463s-.454.306-.721.462a7.279,7.279,0,0,1,.816.128c.248.054.519.111.812.169l4.814,1.034.484,2.378-12.121-2.709Z" transform="translate(-1.737 -15.254)" fill="#fff"/>
        <rect id="Retângulo_188" data-name="Retângulo 188" width="10.973" height="2.495" transform="translate(15.249 126.094) rotate(-18.441)" fill="#fff"/>
        <path id="Caminho_2242" data-name="Caminho 2242" d="M21.7,154.735a5.988,5.988,0,0,1-.448-1.367,6.139,6.139,0,0,1-.119-1.335,4.582,4.582,0,0,1,.172-1.153l2.487-.434a3.633,3.633,0,0,0-.462,1.118,4.119,4.119,0,0,0-.1,1.245,3.254,3.254,0,0,0,.294,1.165,1.978,1.978,0,0,0,.5.7,1.335,1.335,0,0,0,.64.3,1.127,1.127,0,0,0,.663-.094,1.1,1.1,0,0,0,.546-.5,1.923,1.923,0,0,0,.2-.67,4.255,4.255,0,0,0,.031-.6L26.1,151.55a7.834,7.834,0,0,1,.1-1.35,3.164,3.164,0,0,1,.48-1.237,2.618,2.618,0,0,1,1.132-.919,2.965,2.965,0,0,1,1.255-.3,2.741,2.741,0,0,1,1.2.275,3.635,3.635,0,0,1,1.076.808,4.943,4.943,0,0,1,.858,1.31A5.478,5.478,0,0,1,32.731,152a6.486,6.486,0,0,1-.028,1.514l-2.415.444a4.2,4.2,0,0,0,.363-2.122,2.892,2.892,0,0,0-.259-.974,1.752,1.752,0,0,0-.441-.615,1.086,1.086,0,0,0-.538-.26.951.951,0,0,0-.559.083.9.9,0,0,0-.394.339,1.309,1.309,0,0,0-.181.536,5.711,5.711,0,0,0-.044.715l.021,1.574a8.165,8.165,0,0,1-.037.89A4.538,4.538,0,0,1,28,155.146a3.04,3.04,0,0,1-.545.979,2.883,2.883,0,0,1-1.037.764,3.132,3.132,0,0,1-1.757.285,3.361,3.361,0,0,1-1.668-.724,4.6,4.6,0,0,1-1.291-1.715" transform="translate(-2.582 -18.048)" fill="#fff"/>
        <path id="Caminho_2243" data-name="Caminho 2243" d="M25.894,163.169,38.31,161.35l.014.023-6.548,10.7-1.339-2.025,1.133-1.824-2.26-3.424-2.124.325Zm5.323,1.338,1.375,2.081.649-1.054q.258-.428.509-.811a8.2,8.2,0,0,1,.631-.826,8.4,8.4,0,0,1-.991.269q-.453.09-.947.16Z" transform="translate(-3.163 -19.709)" fill="#fff"/>
        <path id="Caminho_2244" data-name="Caminho 2244" d="M36.049,176.68l8.181-7.312,1.663,1.86-6.709,6,2.414,2.7-1.472,1.315Z" transform="translate(-4.403 -20.688)" fill="#fff"/>
        <rect id="Retângulo_189" data-name="Retângulo 189" width="10.974" height="2.495" transform="matrix(0.669, -0.744, 0.744, 0.669, 39.327, 164.003)" fill="#fff"/>
        <path id="Caminho_2245" data-name="Caminho 2245" d="M57.035,195.591a7.613,7.613,0,0,1-1.877-1.784,6.431,6.431,0,0,1-1.051-2.152,5.491,5.491,0,0,1-.133-2.273,5.451,5.451,0,0,1,2.551-3.757A5.543,5.543,0,0,1,58.7,184.9a6.588,6.588,0,0,1,2.385.163,7.685,7.685,0,0,1,4.055,2.659,6.255,6.255,0,0,1,1.013,1.9l-1.977,1.692a4.128,4.128,0,0,0-1.91-3.464,4.4,4.4,0,0,0-1.462-.663,3.842,3.842,0,0,0-1.475-.074,3.462,3.462,0,0,0-1.339.49,3.562,3.562,0,0,0-1.063,1.039,3.652,3.652,0,0,0-.586,1.385,3.391,3.391,0,0,0,.036,1.426,3.852,3.852,0,0,0,.619,1.335,4.5,4.5,0,0,0,1.146,1.1,5.133,5.133,0,0,0,.9.492,3.319,3.319,0,0,0,.864.233l1.193-1.755-2.03-1.38,1.026-1.512,3.85,2.616L60.945,197a7.43,7.43,0,0,1-1.965-.415,8.328,8.328,0,0,1-1.946-.99" transform="translate(-6.585 -22.581)" fill="#fff"/>
        <path id="Caminho_2246" data-name="Caminho 2246" d="M75.736,205.425l-3.906-8.944L69.3,202.149l-2.058-.92,4.626-10.352.024.01,3.912,8.932,2.526-5.653,2.058.918-4.625,10.353Z" transform="translate(-8.214 -23.316)" fill="#fff"/>
        <path id="Caminho_2247" data-name="Caminho 2247" d="M87.538,203.844a4.01,4.01,0,0,1-1.3-.618,3.658,3.658,0,0,1-.939-.981,3.209,3.209,0,0,1-.482-1.208,2.884,2.884,0,0,1,.065-1.29A2.844,2.844,0,0,1,85.8,198.3a3.619,3.619,0,0,1,1.585-.777,4.044,4.044,0,0,1,3.535.976,3.529,3.529,0,0,1,.962,1.479,2.968,2.968,0,0,1-.57,2.847,3.211,3.211,0,0,1-1.031.79,3.729,3.729,0,0,1-1.31.36,3.983,3.983,0,0,1-1.432-.135m.255-.917a2.6,2.6,0,0,0,1.3.038,2.508,2.508,0,0,0,1.1-.563,2.1,2.1,0,0,0,.612-2.215,2.513,2.513,0,0,0-.659-1.042,2.726,2.726,0,0,0-2.437-.673,2.519,2.519,0,0,0-1.106.555A2.1,2.1,0,0,0,86,201.243a2.489,2.489,0,0,0,.663,1.049,2.626,2.626,0,0,0,1.133.635m-1.016-1.216.78-2.821,1.421.392a1.6,1.6,0,0,1,.642.322,1.117,1.117,0,0,1,.332.484.913.913,0,0,1,.014.555.883.883,0,0,1-.295.468,1.124,1.124,0,0,1-.523.229l.475,1.155-1.048-.29-.393-.994-.245-.068-.227.823Zm1.328-1.176.311.085a.63.63,0,0,0,.416,0,.338.338,0,0,0,.2-.222.319.319,0,0,0-.068-.31.684.684,0,0,0-.348-.2l-.311-.085Z" transform="translate(-10.356 -24.117)" fill="#fff"/>
        <path id="Caminho_2248" data-name="Caminho 2248" d="M109.446,212.247a6.839,6.839,0,0,1-2.46-.55,6.592,6.592,0,0,1-1.979-1.309,5.689,5.689,0,0,1-1.3-1.873,5.212,5.212,0,0,1,.185-4.434,5.739,5.739,0,0,1,1.448-1.757,6.66,6.66,0,0,1,2.081-1.139,6.845,6.845,0,0,1,2.5-.341,7.07,7.07,0,0,1,2.236.448,6.289,6.289,0,0,1,1.848,1.078l-.79,2.529a4.13,4.13,0,0,0-1.313-1.33,3.873,3.873,0,0,0-1.989-.6,4.071,4.071,0,0,0-1.533.217,3.9,3.9,0,0,0-1.258.715,3.52,3.52,0,0,0-.865,1.105,3.456,3.456,0,0,0-.118,2.789,3.553,3.553,0,0,0,.769,1.175,3.9,3.9,0,0,0,1.2.818,4.084,4.084,0,0,0,1.508.344,3.872,3.872,0,0,0,2.025-.434,4.087,4.087,0,0,0,1.427-1.216l.576,2.587a6.782,6.782,0,0,1-1.937.913,6.863,6.863,0,0,1-2.26.266" transform="translate(-12.619 -24.533)" fill="#fff"/>
        <path id="Caminho_2249" data-name="Caminho 2249" d="M126.176,211.276a6.863,6.863,0,0,1-2.52-.09,6.63,6.63,0,0,1-2.184-.928,5.674,5.674,0,0,1-1.616-1.6,5.209,5.209,0,0,1-.625-4.395,5.683,5.683,0,0,1,1.105-1.991,6.612,6.612,0,0,1,1.838-1.5,7.146,7.146,0,0,1,4.913-.7,6.609,6.609,0,0,1,2.183.928,5.7,5.7,0,0,1,1.618,1.6,5.215,5.215,0,0,1,.625,4.394,5.706,5.706,0,0,1-1.106,1.993,6.611,6.611,0,0,1-1.838,1.5,6.857,6.857,0,0,1-2.393.79m-.3-2.1a4.01,4.01,0,0,0,2.569-1.425,3.5,3.5,0,0,0,.656-1.245,3.455,3.455,0,0,0-.393-2.763,3.494,3.494,0,0,0-.978-1.014,4.079,4.079,0,0,0-5.429.773,3.46,3.46,0,0,0-.656,1.245,3.443,3.443,0,0,0,.392,2.764,3.5,3.5,0,0,0,.977,1.013,4.007,4.007,0,0,0,2.863.651" transform="translate(-14.536 -24.418)" fill="#fff"/>
        <path id="Caminho_2250" data-name="Caminho 2250" d="M149.065,205.356l-8.949-3.9,2,5.875-2.133.726-3.656-10.733.026-.008L145.3,201.2l-2-5.863,2.131-.726,3.657,10.732Z" transform="translate(-16.653 -23.772)" fill="#fff"/>
        <path id="Caminho_2251" data-name="Caminho 2251" d="M159.091,200.732a6.062,6.062,0,0,1-2.671.7,4.505,4.505,0,0,1-1.158-.114l-.556-2.464a3.586,3.586,0,0,0,1.139.407,4.162,4.162,0,0,0,1.248.039,3.294,3.294,0,0,0,1.148-.35,1.987,1.987,0,0,0,.672-.54,1.325,1.325,0,0,0,.27-.652,1.193,1.193,0,0,0-.651-1.179,1.931,1.931,0,0,0-.679-.167,4.386,4.386,0,0,0-.6,0l-1.559.09a7.921,7.921,0,0,1-1.353-.038,3.169,3.169,0,0,1-1.261-.419,2.635,2.635,0,0,1-.972-1.085,2.967,2.967,0,0,1-.356-1.239,2.7,2.7,0,0,1,.215-1.216,3.624,3.624,0,0,1,.754-1.116,4.981,4.981,0,0,1,1.267-.92,5.465,5.465,0,0,1,1.834-.616,6.475,6.475,0,0,1,1.514-.046l.563,2.39a4.093,4.093,0,0,0-1.067-.271,4.189,4.189,0,0,0-1.07.012,2.931,2.931,0,0,0-.961.306,1.782,1.782,0,0,0-.593.471,1.118,1.118,0,0,0-.234.55.939.939,0,0,0,.112.555.9.9,0,0,0,.356.377,1.331,1.331,0,0,0,.545.154,5.781,5.781,0,0,0,.717.008l1.57-.1a7.749,7.749,0,0,1,.889-.007,4.626,4.626,0,0,1,1.029.168,3.032,3.032,0,0,1,1.005.5,2.887,2.887,0,0,1,.814,1,3.137,3.137,0,0,1,.37,1.74,3.37,3.37,0,0,1-.642,1.7,4.612,4.612,0,0,1-1.649,1.371" transform="translate(-18.536 -23.182)" fill="#fff"/>
        <path id="Caminho_2252" data-name="Caminho 2252" d="M171.389,192.707a5.2,5.2,0,0,1-2.108.959,3.721,3.721,0,0,1-2.065-.169,3.814,3.814,0,0,1-1.713-1.366l-4.312-5.864,2.008-1.477,4.248,5.776a2.058,2.058,0,0,0,.807.677,1.712,1.712,0,0,0,.958.135,2.076,2.076,0,0,0,.951-.4,2.122,2.122,0,0,0,.673-.781,1.7,1.7,0,0,0,.17-.935,1.9,1.9,0,0,0-.382-.938l-4.292-5.835,1.945-1.429,4.291,5.833a3.929,3.929,0,0,1,.813,2.057,3.674,3.674,0,0,1-.434,2.024,5.218,5.218,0,0,1-1.56,1.737" transform="translate(-19.69 -22.116)" fill="#fff"/>
        <path id="Caminho_2253" data-name="Caminho 2253" d="M180.272,185.628l-7.7-7.818,1.777-1.75,6.313,6.409,2.581-2.54,1.385,1.405Z" transform="translate(-21.08 -21.506)" fill="#fff"/>
        <path id="Caminho_2254" data-name="Caminho 2254" d="M189.033,175.7l-7.011-5.638-1.85,2.3-1.539-1.238,5.262-6.543,1.539,1.238-1.849,2.3,7.011,5.639Z" transform="translate(-21.82 -20.103)" fill="#fff"/>
        <path id="Caminho_2255" data-name="Caminho 2255" d="M194.974,168.853,188,158.417l.014-.023,12.479,1.324-1.256,2.077-2.135-.241-2.123,3.511,1.2,1.779ZM193.9,163.47l1.291-2.136-1.231-.133q-.5-.049-.952-.112a8.521,8.521,0,0,1-1.017-.215,8.339,8.339,0,0,1,.669.78c.183.247.367.509.55.787Z" transform="translate(-22.965 -19.348)" fill="#fff"/>
        <path id="Caminho_2256" data-name="Caminho 2256" d="M203.142,153.146l-8.248-3.591-1.179,2.706-1.81-.788,3.351-7.7,1.809.789-1.177,2.706,8.251,3.591Z" transform="translate(-23.441 -17.562)" fill="#fff"/>
        <rect id="Retângulo_190" data-name="Retângulo 190" width="2.495" height="10.973" transform="translate(172.923 122.679) rotate(-73.244)" fill="#fff"/>
        <path id="Caminho_2257" data-name="Caminho 2257" d="M211.237,126.592a6.835,6.835,0,0,1-.8,2.39,6.618,6.618,0,0,1-1.5,1.835,5.732,5.732,0,0,1-2,1.1,5.214,5.214,0,0,1-4.393-.639,5.727,5.727,0,0,1-1.6-1.623,6.576,6.576,0,0,1-.919-2.187,7.116,7.116,0,0,1,.715-4.911,6.612,6.612,0,0,1,1.5-1.834,5.709,5.709,0,0,1,2-1.1,5.219,5.219,0,0,1,4.391.639,5.712,5.712,0,0,1,1.6,1.622,6.612,6.612,0,0,1,.92,2.188,6.839,6.839,0,0,1,.083,2.519m-2.1-.305a4,4,0,0,0-.642-2.866,3.488,3.488,0,0,0-1.01-.98,3.451,3.451,0,0,0-2.762-.4,3.491,3.491,0,0,0-1.247.651,3.991,3.991,0,0,0-1.434,2.563,4.058,4.058,0,0,0,.058,1.54,4.01,4.01,0,0,0,.584,1.326,3.5,3.5,0,0,0,1.01.98,3.446,3.446,0,0,0,2.763.4,3.447,3.447,0,0,0,1.247-.651,4,4,0,0,0,1.433-2.562" transform="translate(-24.414 -14.584)" fill="#fff"/>
        <path id="Caminho_2258" data-name="Caminho 2258" d="M212.094,103.141l-6.228,7.514,6.2-.29.1,2.252-11.326.528v-.028l6.216-7.512-6.187.288-.105-2.252,11.327-.527Z" transform="translate(-24.524 -12.596)" fill="#fff"/>
        <path id="Caminho_2259" data-name="Caminho 2259" d="M35.869,66.478,25.656,60.044l3.536-5.611,1.77,1.116-2.253,3.576,1.566.988,2.032-3.227,1.7,1.074-2.033,3.225,5.174,3.261Z" transform="translate(-3.134 -6.649)" fill="#35bcdf"/>
        <path id="Caminho_2260" data-name="Caminho 2260" d="M42.957,56.1,33.9,48.121l2.511-2.85a4.765,4.765,0,0,1,1.922-1.391,3.725,3.725,0,0,1,2.013-.186,3.661,3.661,0,0,1,1.762.87,3.556,3.556,0,0,1,.753.921,3.382,3.382,0,0,1,.39,1.08,3.77,3.77,0,0,1,.014,1.173l6.148,1.035-1.8,2.041-5.269-.959L41.1,51.265,44.546,54.3ZM39.6,49.934l.849-.963a2.279,2.279,0,0,0,.565-1.03,1.613,1.613,0,0,0-.058-.916,1.7,1.7,0,0,0-.462-.683,1.513,1.513,0,0,0-.823-.384,1.727,1.727,0,0,0-.909.139,2.411,2.411,0,0,0-.852.64l-.849.964Z" transform="translate(-4.141 -5.33)" fill="#35bcdf"/>
        <path id="Caminho_2261" data-name="Caminho 2261" d="M53.819,44.737,46.165,35.4l5.128-4.2,1.327,1.618L49.351,35.5l1.174,1.431,2.52-2.066,1.276,1.555L51.8,38.485l2.5,3.05,3.268-2.682,1.379,1.68Z" transform="translate(-5.639 -3.811)" fill="#35bcdf"/>
        <path id="Caminho_2262" data-name="Caminho 2262" d="M64.255,36.88,58.044,26.531l5.686-3.412,1.077,1.794-3.625,2.175.952,1.586L64.93,27l1.034,1.725L63.17,30.4l2.03,3.381,3.624-2.176,1.118,1.863Z" transform="translate(-7.09 -2.824)" fill="#35bcdf"/>
        <path id="Caminho_2263" data-name="Caminho 2263" d="M84.09,27.4l-.558-1.848,2.513-.759-2.068-6.856-2.141,1.991-.659-2.182,4.037-3.741L85.24,14,88.294,24.12l1.983-.6.559,1.85Z" transform="translate(-9.916 -1.71)" fill="#fff"/>
        <path id="Caminho_2264" data-name="Caminho 2264" d="M100.928,23.842a4.861,4.861,0,0,1-2.249-.226A4.465,4.465,0,0,1,96.918,22.5l.952-2.539a2.925,2.925,0,0,0,.626.956,2.691,2.691,0,0,0,.963.63,2.4,2.4,0,0,0,1.173.138,2.281,2.281,0,0,0,1.082-.42,2.219,2.219,0,0,0,.707-.859,2.026,2.026,0,0,0,.166-1.129,1.945,1.945,0,0,0-.454-1.066,2.1,2.1,0,0,0-.932-.613,2.666,2.666,0,0,0-1.19-.108,2.718,2.718,0,0,0-1.12.39,2.919,2.919,0,0,0-.837.773l-.027,0-.847-6.787,5.922-.741.259,2.077-3.949.492.238,1.9a1.737,1.737,0,0,1,.3-.09,3.241,3.241,0,0,1,.327-.054,4.165,4.165,0,0,1,1.6.1,4.265,4.265,0,0,1,1.427.68,4.03,4.03,0,0,1,1.081,1.176,4.17,4.17,0,0,1,.392,3.316,4.272,4.272,0,0,1-.812,1.474,4.624,4.624,0,0,1-1.326,1.084,4.712,4.712,0,0,1-1.706.545" transform="translate(-11.839 -1.36)" fill="#fff"/>
        <rect id="Retângulo_191" data-name="Retângulo 191" width="1.931" height="4.42" transform="matrix(0.013, -1, 1, 0.013, 98.051, 16.448)" fill="#fff"/>
        <path id="Caminho_2265" data-name="Caminho 2265" d="M121.59,23l2.148-12.285.027,0,4.567,8.042,6.917-6.033.026,0-2.149,12.285-2.368-.413.6-3.41c.068-.386.151-.822.249-1.3s.238-1.029.421-1.642a13.9,13.9,0,0,1-1.018,1.048l-.877.8-2.471,2.263-1.624-2.979q-.244-.452-.574-1.089t-.614-1.34q-.059.984-.168,1.714c-.07.488-.14.929-.211,1.326l-.6,3.408Z" transform="translate(-14.852 -1.308)" fill="#fff"/>
        <rect id="Retângulo_192" data-name="Retângulo 192" width="12.07" height="2.569" transform="translate(123.327 25.389) rotate(-70.902)" fill="#fff"/>
        <path id="Caminho_2266" data-name="Caminho 2266" d="M157.43,35.385l-3.212-9.857-3.177,6.042-2.054-1.08,5.805-11.039.025.012,3.219,9.845,3.172-6.028,2.054,1.08L157.455,35.4Z" transform="translate(-18.199 -2.376)" fill="#fff"/>
        <path id="Caminho_2267" data-name="Caminho 2267" d="M167,41.956a5.041,5.041,0,0,1-1.5-1.859,3.937,3.937,0,0,1-.332-2.172,4.421,4.421,0,0,1,.986-2.188l4.974-6.274,2.014,1.6-4.9,6.18a2.36,2.36,0,0,0-.5,1.042,1.819,1.819,0,0,0,.094,1.024,2.045,2.045,0,0,0,.65.849,2.076,2.076,0,0,0,.971.444,1.8,1.8,0,0,0,1-.12,2.2,2.2,0,0,0,.87-.687l4.948-6.242,1.95,1.545-4.95,6.242a4.565,4.565,0,0,1-1.916,1.484,3.873,3.873,0,0,1-2.188.19A5.064,5.064,0,0,1,167,41.956" transform="translate(-20.171 -3.599)" fill="#fff"/>
        <path id="Caminho_2268" data-name="Caminho 2268" d="M177.261,51.058l7.368-6.61-2.03-2.261,1.617-1.452,5.775,6.436-1.618,1.451-2.029-2.262-7.368,6.611Z" transform="translate(-21.653 -4.976)" fill="#fff"/>
        <path id="Caminho_2269" data-name="Caminho 2269" d="M184.567,60.477l10.11-6.6,3.623,5.554-1.753,1.143-2.309-3.54-1.551,1.011,1.781,2.732-1.685,1.1L191,59.148,187.7,61.3l2.31,3.54-1.821,1.188Z" transform="translate(-22.545 -6.582)" fill="#fff"/>
        <g id="Grupo_300" data-name="Grupo 300" transform="translate(1.493 1.493)" opacity="0.25">
          <g id="Grupo_299" data-name="Grupo 299">
            <g id="Grupo_298" data-name="Grupo 298" clip-path="url(#clip-path-3)">
              <circle id="Elipse_17" data-name="Elipse 17" cx="97.363" cy="97.363" r="97.363" transform="translate(0.439 0.439)" fill="none" stroke="#fff" stroke-miterlimit="10" stroke-width="1"/>
            </g>
          </g>
        </g>
        <g id="Grupo_303" data-name="Grupo 303" transform="translate(29.832 29.832)" opacity="0.25">
          <g id="Grupo_302" data-name="Grupo 302">
            <g id="Grupo_301" data-name="Grupo 301" clip-path="url(#clip-path-4)">
              <circle id="Elipse_18" data-name="Elipse 18" cx="69.023" cy="69.023" r="69.023" transform="translate(0.439 0.44)" fill="none" stroke="#fff" stroke-miterlimit="10" stroke-width="1"/>
            </g>
          </g>
        </g>
        <g id="Grupo_306" data-name="Grupo 306" transform="translate(85.487 59.167)" opacity="0.5">
          <g id="Grupo_305" data-name="Grupo 305">
            <g id="Grupo_304" data-name="Grupo 304" clip-path="url(#clip-path-5)">
              <path id="Caminho_2270" data-name="Caminho 2270" d="M111.2,74.934a15.721,15.721,0,0,0,3.687-7.03,13.789,13.789,0,0,0-7.387,0,15.556,15.556,0,0,0,3.7,7.03m0,12.569a15.555,15.555,0,0,0-3.7,7.03,13.777,13.777,0,0,0,7.387,0A15.721,15.721,0,0,0,111.2,87.5m-4.449-10.727a15.664,15.664,0,0,0-2.367-7.588,13.915,13.915,0,0,0-5.21,5.224,15.579,15.579,0,0,0,7.577,2.364m0,8.89a15.6,15.6,0,0,0-7.577,2.36,13.884,13.884,0,0,0,5.21,5.224,15.642,15.642,0,0,0,2.367-7.584M104.9,81.218a15.545,15.545,0,0,0-7.028-3.691,14.053,14.053,0,0,0,0,7.382,15.539,15.539,0,0,0,7.028-3.69m12.575,0a15.539,15.539,0,0,0,7.025,3.69,13.77,13.77,0,0,0,0-7.382,15.545,15.545,0,0,0-7.025,3.691m5.738,6.807a15.6,15.6,0,0,0-7.578-2.36A15.511,15.511,0,0,0,118,93.249a13.915,13.915,0,0,0,5.22-5.224M118,69.187a13.947,13.947,0,0,1,5.22,5.224,15.581,15.581,0,0,1-7.578,2.364A15.532,15.532,0,0,1,118,69.187" transform="translate(-97.383 -67.4)" fill="#0093cf"/>
            </g>
          </g>
        </g>
        <path id="Caminho_2271" data-name="Caminho 2271" d="M91.059,91.125a34.213,34.213,0,0,0-4.416,9.787,34.257,34.257,0,0,0,9.781-4.426,21.529,21.529,0,0,1-5.365-5.361m13.9,8.907a34.352,34.352,0,0,0,3.8,10.041,34.591,34.591,0,0,0,3.788-10.041,21.928,21.928,0,0,1-7.591,0m-8.54-38.944a34.462,34.462,0,0,0-9.781-4.422,34.2,34.2,0,0,0,4.416,9.786,21.558,21.558,0,0,1,5.365-5.365M130,82.573a34.249,34.249,0,0,0,10.043-3.784A34.256,34.256,0,0,0,130,75a21.938,21.938,0,0,1,0,7.572M87.521,75a34.237,34.237,0,0,0-10.049,3.788,34.23,34.23,0,0,0,10.049,3.784,21.322,21.322,0,0,1,0-7.572M121.1,96.486a34.186,34.186,0,0,0,9.792,4.426,34.415,34.415,0,0,0-4.427-9.787,21.573,21.573,0,0,1-5.365,5.361m-8.542-38.94a34.527,34.527,0,0,0-3.788-10.041,34.289,34.289,0,0,0-3.8,10.041,22.312,22.312,0,0,1,3.8-.331,21.786,21.786,0,0,1,3.788.331m8.542,3.541a34.39,34.39,0,0,1,9.792-4.422,34.352,34.352,0,0,1-4.427,9.782,21.658,21.658,0,0,0-5.365-5.36" transform="translate(-9.463 -5.803)" fill="#004e9a"/>
        <g id="Grupo_309" data-name="Grupo 309" transform="translate(77.717 51.412)" opacity="0.75">
          <g id="Grupo_308" data-name="Grupo 308">
            <g id="Grupo_307" data-name="Grupo 307" clip-path="url(#clip-path-6)">
              <path id="Caminho_2272" data-name="Caminho 2272" d="M103.3,92.169a13.894,13.894,0,0,1-5.209-5.224,17.259,17.259,0,0,0-3.232,2.54,20.8,20.8,0,0,0-2.45,2.993,21.763,21.763,0,0,0,5.365,5.36,20.832,20.832,0,0,0,2.988-2.445,17.179,17.179,0,0,0,2.539-3.224M98.092,73.331a13.938,13.938,0,0,1,5.209-5.224,16.988,16.988,0,0,0-2.539-3.219,21.035,21.035,0,0,0-2.988-2.448A21.72,21.72,0,0,0,92.409,67.8a20.565,20.565,0,0,0,2.45,2.987,17.043,17.043,0,0,0,3.232,2.54m8.326-6.506a13.909,13.909,0,0,1,7.388,0,17.424,17.424,0,0,0,.475-4.083A21.31,21.31,0,0,0,113.9,58.9a21.933,21.933,0,0,0-7.592,0,20.923,20.923,0,0,0-.381,3.846,17.082,17.082,0,0,0,.486,4.083m10.5,1.282a13.945,13.945,0,0,1,5.221,5.224,16.923,16.923,0,0,0,3.218-2.54,20.558,20.558,0,0,0,2.457-2.987,21.587,21.587,0,0,0-5.365-5.365,20.944,20.944,0,0,0-2.989,2.448,17.273,17.273,0,0,0-2.543,3.219M96.793,83.83a14.053,14.053,0,0,1,0-7.382,17.179,17.179,0,0,0-4.08-.483,19.879,19.879,0,0,0-3.841.388,21.214,21.214,0,0,0,0,7.572,20.231,20.231,0,0,0,3.841.389,17.592,17.592,0,0,0,4.08-.485m25.343,3.115a13.945,13.945,0,0,1-5.221,5.224,17.157,17.157,0,0,0,2.543,3.224,20.245,20.245,0,0,0,2.989,2.445,21.629,21.629,0,0,0,5.365-5.36,20.8,20.8,0,0,0-2.457-2.993,17.136,17.136,0,0,0-3.218-2.54m1.285-10.5a13.746,13.746,0,0,1,0,7.382,17.724,17.724,0,0,0,4.092.485,20.132,20.132,0,0,0,3.835-.389,21.823,21.823,0,0,0,0-7.572,19.783,19.783,0,0,0-3.835-.388,17.306,17.306,0,0,0-4.092.483m-9.141,21.085a21.351,21.351,0,0,1-.377,3.85,21.933,21.933,0,0,1-7.592,0,20.963,20.963,0,0,1-.381-3.85,17.051,17.051,0,0,1,.486-4.077,13.792,13.792,0,0,0,7.388,0,17.393,17.393,0,0,1,.475,4.077" transform="translate(-88.532 -58.566)" fill="#006fb8"/>
            </g>
          </g>
        </g>
        <path id="Caminho_2273" data-name="Caminho 2273" d="M143.247,136.176c0,4.51-2.64,6.007-5.746,6.007a8.219,8.219,0,0,1-3.762-.833l.6-2.089a6.345,6.345,0,0,0,3.138.817,3.139,3.139,0,0,0,3.341-3.246V136.1a4.281,4.281,0,0,1-3.284,1.407c-2.831,0-4.971-2.276-4.971-5.552,0-3.138,2.015-5.55,4.981-5.55a4.176,4.176,0,0,1,3.261,1.4l.032-1.106h2.407Zm-2.288-4.215c0-2.194-1.383-3.362-2.953-3.362-1.879,0-2.962,1.529-2.962,3.362,0,1.934,1.166,3.361,2.96,3.361,1.649,0,2.955-1.228,2.955-3.361m-28.823,0c0,2.016,1.238,3.361,2.956,3.361,1.559,0,2.958-1.136,2.958-3.361,0-2.163-1.342-3.362-2.958-3.362-1.789,0-2.956,1.427-2.956,3.362m5.8-5.257h2.4v10.512h-2.4l-.038-1.1a4.722,4.722,0,0,1-3.257,1.4c-2.864,0-4.989-2.305-4.989-5.552,0-3.434,2.3-5.55,4.989-5.55a4.217,4.217,0,0,1,3.257,1.4Zm11.562-5.02a1.523,1.523,0,1,0,1.524,1.524,1.521,1.521,0,0,0-1.524-1.524m1.217,15.532h-2.429V126.7h2.429Zm-5.19,0H123.1v-15.28h2.429ZM146.009,126.7h2.339l.038.974a3.436,3.436,0,0,1,2.686-1.268c2.568,0,3.97,1.587,3.97,4.355v6.45h-2.426v-6.371a2.094,2.094,0,1,0-4.179,0v6.371h-2.427Z" transform="translate(-13.394 -14.864)" fill="#004e9a"/>
        <path id="Caminho_2274" data-name="Caminho 2274" d="M69.878,126.7h2.343l.04.974a3.358,3.358,0,0,1,2.714-1.268c2.349,0,3.94,1.588,3.94,4.358v6.449h-2.43v-6.336a2.095,2.095,0,1,0-4.174,0v6.336H69.878Zm22.429-5.02a1.523,1.523,0,1,0,1.519,1.524,1.525,1.525,0,0,0-1.519-1.524m1.212,15.532H91.092V126.7h2.427ZM65.912,121.684a1.523,1.523,0,1,0,1.519,1.524,1.523,1.523,0,0,0-1.519-1.524m1.211,15.532H64.694V126.7h2.429ZM95.7,134.8a5.856,5.856,0,0,0,2.717.789c1.179,0,1.744-.506,1.744-1.2,0-.722-.435-1.116-1.749-1.6-2.078-.7-2.9-1.789-2.9-3.057,0-1.879,1.48-3.324,3.956-3.324a6.123,6.123,0,0,1,2.842.632l-.542,1.882a4.757,4.757,0,0,0-2.256-.612c-.966,0-1.535.479-1.535,1.137,0,.679.506,1.029,1.864,1.53,1.945.679,2.792,1.648,2.814,3.223,0,1.944-1.438,3.31-4.26,3.31a6.877,6.877,0,0,1-3.242-.744Zm-13.6-8.1,2.721,6.322,2.706-6.322H90.22l-5.426,11.234L79.414,126.7Z" transform="translate(-7.865 -14.864)" fill="#0093cf"/>
        <path id="Caminho_2275" data-name="Caminho 2275" d="M164.578,126.743h.292c.256,0,.5-.014.5-.317,0-.255-.222-.285-.416-.285h-.376Zm-.284-.835H165c.443,0,.656.175.656.535a.485.485,0,0,1-.5.512l.536.823h-.305l-.506-.8h-.307v.8h-.284Zm.612,2.305a1.37,1.37,0,1,0-1.319-1.367,1.325,1.325,0,0,0,1.319,1.367m0-2.97a1.6,1.6,0,1,1-1.6,1.6,1.6,1.6,0,0,1,1.6-1.6" transform="translate(-19.948 -15.299)" fill="#004e9a"/>
        <path id="Caminho_2276" data-name="Caminho 2276" d="M24.785,82.57a2.7,2.7,0,1,1-2.7-2.7,2.7,2.7,0,0,1,2.7,2.7" transform="translate(-2.368 -9.756)" fill="#35bcdf"/>
        <path id="Caminho_2277" data-name="Caminho 2277" d="M75.635,158.425v-6.854h2.157a2.7,2.7,0,0,1,1.313.3,2.12,2.12,0,0,1,.837.787,2.093,2.093,0,0,1,.29,1.078,2,2,0,0,1-.11.666,1.89,1.89,0,0,1-.314.571,2.13,2.13,0,0,1-.493.445l1.866,3.008H79.635l-1.569-2.6H77v2.6ZM77,154.679h.729a1.3,1.3,0,0,0,.65-.145.915.915,0,0,0,.369-.37.963.963,0,0,0,.118-.454.859.859,0,0,0-.145-.494.986.986,0,0,0-.4-.335,1.361,1.361,0,0,0-.592-.122H77Z" transform="translate(-9.239 -18.515)" fill="#1a1818"/>
        <path id="Caminho_2278" data-name="Caminho 2278" d="M82.691,158.424V151.57h3.765v1.189h-2.4v1.051h1.851v1.142H84.056v2.239h2.4v1.233Z" transform="translate(-10.101 -18.514)" fill="#1a1818"/>
        <path id="Caminho_2279" data-name="Caminho 2279" d="M88.256,158.424v-6.853h2.4a4.282,4.282,0,0,1,1.542.266,3.721,3.721,0,0,1,1.2.735,3.306,3.306,0,0,1,0,4.852,3.722,3.722,0,0,1-1.2.735,4.282,4.282,0,0,1-1.542.266Zm1.365-1.233h.91a2.974,2.974,0,0,0,1.051-.171,2.194,2.194,0,0,0,.765-.472,2.022,2.022,0,0,0,.471-.7,2.25,2.25,0,0,0,.16-.853,2.279,2.279,0,0,0-.16-.858,2,2,0,0,0-.471-.7,2.136,2.136,0,0,0-.765-.469,3.037,3.037,0,0,0-1.051-.168h-.91Z" transform="translate(-10.781 -18.515)" fill="#1a1818"/>
        <path id="Caminho_2280" data-name="Caminho 2280" d="M96.59,158.424V151.57h3.765v1.189h-2.4v1.051h1.851v1.142H97.956v2.239h2.4v1.233Z" transform="translate(-11.799 -18.514)" fill="#1a1818"/>
        <path id="Caminho_2281" data-name="Caminho 2281" d="M102.156,158.424V151.57h3.765v1.189h-2.4v1.051h1.851v1.142h-1.851v2.239h2.4v1.233Z" transform="translate(-12.478 -18.514)" fill="#1a1818"/>
        <path id="Caminho_2282" data-name="Caminho 2282" d="M107.72,158.393v-7.082h.017l3.34,4.051,3.28-4.051h.015v7.082h-1.365v-1.965q0-.334.012-.754t.075-.959a7.763,7.763,0,0,1-.467.685l-.412.533-1.161,1.508-1.2-1.508c-.12-.153-.263-.336-.428-.552s-.322-.445-.474-.689q.063.556.075.975t.011.761v1.965Z" transform="translate(-13.158 -18.483)" fill="#1a1818"/>
        <path id="Caminho_2283" data-name="Caminho 2283" d="M122.922,158.543a3.763,3.763,0,0,1-1.45-.278,3.836,3.836,0,0,1-1.189-.765,3.547,3.547,0,0,1-.8-1.135,3.449,3.449,0,0,1,0-2.771,3.567,3.567,0,0,1,.8-1.135,3.834,3.834,0,0,1,1.189-.765,3.92,3.92,0,0,1,2.9,0,3.84,3.84,0,0,1,1.189.765,3.583,3.583,0,0,1,.8,1.135,3.459,3.459,0,0,1,0,2.771,3.563,3.563,0,0,1-.8,1.135,3.843,3.843,0,0,1-1.189.765,3.771,3.771,0,0,1-1.451.278m0-1.326a2.226,2.226,0,0,0,.887-.175,2.328,2.328,0,0,0,.717-.48,2.163,2.163,0,0,0,.483-.712,2.294,2.294,0,0,0,0-1.743,2.162,2.162,0,0,0-.483-.712,2.312,2.312,0,0,0-.717-.48,2.327,2.327,0,0,0-1.773,0,2.312,2.312,0,0,0-.717.48,2.176,2.176,0,0,0-.483.712,2.294,2.294,0,0,0,0,1.743,2.176,2.176,0,0,0,.483.712,2.328,2.328,0,0,0,.717.48,2.226,2.226,0,0,0,.887.175" transform="translate(-14.559 -18.496)" fill="#1a1818"/>
        <path id="Caminho_2284" data-name="Caminho 2284" d="M128.971,158.424V151.57h3.765v1.189h-2.4v1.051H132.5v1.142h-2.165v3.473Z" transform="translate(-15.754 -18.514)" fill="#1a1818"/>
        <path id="Caminho_2285" data-name="Caminho 2285" d="M134.267,158.424V151.57h3.765v1.189h-2.4v1.051H137.8v1.142h-2.165v3.473Z" transform="translate(-16.401 -18.514)" fill="#1a1818"/>
        <path id="Caminho_2286" data-name="Caminho 2286" d="M139.564,158.424V151.57h3.765v1.189h-2.4v1.051h1.851v1.142h-1.851v2.239h2.4v1.233Z" transform="translate(-17.048 -18.514)" fill="#1a1818"/>
        <path id="Caminho_2287" data-name="Caminho 2287" d="M145.156,158.425v-6.854h2.157a2.7,2.7,0,0,1,1.313.3,2.12,2.12,0,0,1,.837.787,2.093,2.093,0,0,1,.29,1.078,2,2,0,0,1-.11.666,1.889,1.889,0,0,1-.314.571,2.129,2.129,0,0,1-.493.445l1.866,3.008h-1.545l-1.569-2.6h-1.067v2.6Zm1.365-3.747h.73a1.3,1.3,0,0,0,.65-.145.916.916,0,0,0,.369-.37.964.964,0,0,0,.118-.454.859.859,0,0,0-.145-.494.986.986,0,0,0-.4-.335,1.361,1.361,0,0,0-.592-.122h-.73Z" transform="translate(-17.731 -18.515)" fill="#1a1818"/>
        <path id="Caminho_2288" data-name="Caminho 2288" d="M119.884,164.735l7.872,7.309-7.872,7.309" transform="translate(-14.644 -20.123)" fill="none" stroke="#35bcdf" stroke-linecap="round" stroke-linejoin="round" stroke-width="2"/>
        <line id="Linha_3" data-name="Linha 3" x1="25.865" transform="translate(87.248 151.92)" fill="none" stroke="#35bcdf" stroke-linecap="round" stroke-linejoin="round" stroke-width="2"/>
      </g>
    </g>
  </g>
</svg>
