<svg xmlns="http://www.w3.org/2000/svg" width="99.31" height="66.979" viewBox="0 0 99.31 66.979"><g transform="translate(1.414 1.414)"><g><path d="M0 0h96.481v64.151H0z" stroke-linecap="round" stroke-linejoin="round" stroke-width="3"/><path d="M0 0h82.735v50.404H0z" transform="translate(6.873 6.874)" stroke-linecap="round" stroke-linejoin="round" stroke-width="3"/><path d="M0 6.874 6.873.0z" transform="translate(89.608)" stroke-linecap="round" stroke-linejoin="round" stroke-width="2"/><path d="M0 0 6.873 6.873z" transform="translate(89.608 57.278)" stroke-linecap="round" stroke-linejoin="round" stroke-width="2"/><path d="M6.873 6.874.0.0z" stroke-linecap="round" stroke-linejoin="round" stroke-width="2"/><path d="M6.873.0.0 6.873z" transform="translate(0 57.278)" stroke-linecap="round" stroke-linejoin="round" stroke-width="2"/><path d="M1067.6 342.954a3.335 3.335.0 0 1-3.54.979 113.613 113.613.0 0 0-62.4-.029 3.492 3.492.0 0 1-3.695-1.023 2.05 2.05.0 0 1-.253-2.127 2.953 2.953.0 0 1 1.922-1.512 124.763 124.763.0 0 1 66.249-.029 3.03 3.03.0 0 1 1.976 1.554A2.105 2.105.0 0 1 1067.6 342.954z" transform="translate(-984.569 -321.13)" stroke-linecap="round" stroke-linejoin="round" stroke-width="2"/><g transform="translate(29.932 36.028)"><path d="M1020.751 369.643c3.032 1.036 5-1.927 2.525-3.63a4.249 4.249.0 0 0-1.39-.606" transform="translate(-1020.751 -365.407)" stroke-linecap="round" stroke-linejoin="round" stroke-width="2"/></g><g transform="translate(26.342 40.264)"><path d="M1015.839 373.716c1.62 2.655 5.028 1.861 4.268-1.155a4.21 4.21.0 0 0-.678-1.359" transform="translate(-1015.839 -371.202)" stroke-linecap="round" stroke-linejoin="round" stroke-width="2"/></g><g transform="translate(21.925 42.399)"><path d="M1009.846 374.123c-.593 3.986 4.241 4.633 4.366.379" transform="translate(-1009.796 -374.123)" stroke-linecap="round" stroke-linejoin="round" stroke-width="2"/></g><g transform="translate(17.674 39.3)"><path d="M1005.181 369.884c-3.027 2.693.292 6.26 3.1 3.1" transform="translate(-1003.98 -369.884)" stroke-linecap="round" stroke-linejoin="round" stroke-width="2"/></g><g transform="translate(15.59 34.937)"><path d="M1004.03 363.914c-4.028.107-3.826 5 .384 4.364" transform="translate(-1001.129 -363.914)" stroke-linecap="round" stroke-linejoin="round" stroke-width="2"/></g><g transform="translate(16.831 30.53)"><path d="M1007 358.7c-3.2-2.51-6.112 1.387-2.511 3.593" transform="translate(-1002.827 -357.885)" stroke-linecap="round" stroke-linejoin="round" stroke-width="2"/></g><g transform="translate(20.758 27.72)"><path d="M1012.677 356.53c-.829-3.946-5.6-2.926-4.233 1.134" transform="translate(-1008.199 -354.041)" stroke-linecap="round" stroke-linejoin="round" stroke-width="2"/></g><g transform="translate(25.235 28.123)"><path d="M1018.3 358.524c1.938-3.5-2.419-5.824-3.975-1.846" transform="translate(-1014.325 -354.592)" stroke-linecap="round" stroke-linejoin="round" stroke-width="2"/></g><g transform="translate(29.21 31.537)"><path d="M1021.62 363.754c3.767-1.452 1.845-6.018-1.857-3.973" transform="translate(-1019.763 -359.262)" stroke-linecap="round" stroke-linejoin="round" stroke-width="2"/></g><path d="M4.702 7.259.0.0z" transform="translate(25.783 44.747)" stroke-linecap="round" stroke-linejoin="round" stroke-width="2"/><path d="M1021.732 373.316v0l4.608 7.112" transform="translate(-991.083 -331.507)" stroke-linecap="round" stroke-linejoin="round" stroke-width="2"/><path d="M1003.04 374.695l-3.951 6.108h.27a4.829 4.829.0 0 1 4.5 3.081l4.258-6.575" transform="translate(-984.99 -331.878)" stroke-linecap="round" stroke-linejoin="round" stroke-width="2"/><path d="M1019.941 373.316v0l4.608 7.112h-.123a4.938 4.938.0 0 0-4.652 3.082l-4.7-7.258" transform="translate(-989.292 -331.507)" stroke-linecap="round" stroke-linejoin="round" stroke-width="2"/><path d="M0 0H37.93z" transform="translate(43.058 37.613)" stroke-linecap="round" stroke-linejoin="round" stroke-width="2"/><path d="M0 0H37.93z" transform="translate(43.058 49.064)" stroke-linecap="round" stroke-linejoin="round" stroke-width="2"/><path d="M0 0H37.93z" transform="translate(43.058 43.338)" stroke-linecap="round" stroke-linejoin="round" stroke-width="2"/><circle cx="2.193" cy="2.193" r="2.193" transform="translate(43.058 27.171)" stroke-miterlimit="10" stroke-width="2"/><path d="M1015.939 364.71a4.142 4.142.0 1 0-4.143 4.141A4.142 4.142.0 0 0 1015.939 364.71z" transform="translate(-987.295 -328.077)" stroke-linecap="round" stroke-linejoin="round" stroke-width="2"/><circle cx="2.193" cy="2.193" r="2.193" transform="translate(49.767 27.171)" stroke-miterlimit="10" stroke-width="2"/><circle cx="2.193" cy="2.193" r="2.193" transform="translate(56.476 27.171)" stroke-miterlimit="10" stroke-width="2"/><circle cx="2.193" cy="2.193" r="2.193" transform="translate(63.185 27.171)" stroke-miterlimit="10" stroke-width="2"/><circle cx="2.193" cy="2.193" r="2.193" transform="translate(69.894 27.171)" stroke-miterlimit="10" stroke-width="2"/><circle cx="2.193" cy="2.193" r="2.193" transform="translate(76.603 27.171)" stroke-miterlimit="10" stroke-width="2"/></g></g></svg>
