<svg xmlns="http://www.w3.org/2000/svg" width="58.175" height="33.935" viewBox="0 0 58.175 33.935"><g transform="translate(-160 -128)"><path d="M296.872 158.544a7.272 7.272.0 1 0-7.272-7.272A7.272 7.272.0 0 0 296.872 158.544zm0-11.947a4.675 4.675.0 1 1-4.675 4.675A4.68 4.68.0 0 1 296.872 146.6z" transform="translate(-90.332 -11.152)"/><path d="M295.8 197.594a17.1 17.1.0 0 1 1.626 1.907 9.2 9.2.0 0 1 12.835 10.017h2.455a11.625 11.625.0 0 0-11.521-13.251A11.579 11.579.0 0 0 295.8 197.594z" transform="translate(-94.65 -47.582)"/><path d="M234.664 206.544h2.424a14.544 14.544.0 0 0-29.088.0h2.424a12.12 12.12.0 1 1 24.24.0z" transform="translate(-33.456 -44.608)"/><path d="M236.484 144.968A8.484 8.484.0 1 0 228 136.484 8.484 8.484.0 0 0 236.484 144.968zm0-14.7a6.211 6.211.0 1 1-6.211 6.211A6.218 6.218.0 0 1 236.484 130.272z" transform="translate(-47.396)"/><path d="M162.569 209.518A9.2 9.2.0 0 1 175.4 199.5a17.1 17.1.0 0 1 1.626-1.907A11.634 11.634.0 0 0 160 207.9a11.744 11.744.0 0 0 .114 1.616z" transform="translate(0 -47.582)"/><path d="M181.672 158.544a7.272 7.272.0 1 0-7.272-7.272A7.272 7.272.0 0 0 181.672 158.544zm0-11.947A4.675 4.675.0 1 1 177 151.272 4.68 4.68.0 0 1 181.672 146.6z" transform="translate(-10.037 -11.152)"/></g></svg>
