<svg xmlns="http://www.w3.org/2000/svg" width="45" height="63" viewBox="0 0 45 63">
  <g id="Group_333" data-name="Group 333" transform="translate(-1107 -944)">
    <circle id="Ellipse_12" data-name="Ellipse 12" cx="22.5" cy="22.5" r="22.5" transform="translate(1107 944)" fill="#134545"/>
    <g id="Group_304" data-name="Group 304" transform="translate(1107.08 950.612)">
      <line id="Line_4" data-name="Line 4" x1="22.366" y2="2.087" transform="translate(10.987 35.414)" fill="none" stroke="#fff" stroke-linecap="round" stroke-linejoin="round" stroke-width="2"/>
      <line id="Line_5" data-name="Line 5" x1="21.259" y2="2.004" transform="translate(11.541 43.365)" fill="none" stroke="#fff" stroke-linecap="round" stroke-linejoin="round" stroke-width="2"/>
      <g id="Group_303" data-name="Group 303" transform="translate(2.336 2.335)">
        <g id="Group_305" data-name="Group 305" transform="translate(0)">
          <path id="Path_2130" data-name="Path 2130" d="M6.6,26.161H37.743a2.082,2.082,0,0,0,1.981-1.431c.282-.861.557-1.729.812-2.617,3.437-11.976.458-17.976-4.982-19.4-3.4-.893-6.355-.05-9.089,1a13.867,13.867,0,0,1-4.3,1.1,13.863,13.863,0,0,1-4.3-1.1c-2.735-1.046-5.684-1.889-9.089-1C3.347,4.138.367,10.138,3.8,22.114c.255.888.53,1.756.812,2.617A2.082,2.082,0,0,0,6.6,26.161Z" transform="translate(-2.336 -2.335)" fill="none" stroke="#fff" stroke-linecap="round" stroke-linejoin="round" stroke-width="2"/>
          <path id="Path_2131" data-name="Path 2131" d="M48.038,120l-.339-6.693H64.333l-.264,5.2" transform="translate(-36.182 -85.134)" fill="none" stroke="#fff" stroke-linecap="round" stroke-linejoin="round" stroke-width="2"/>
          <line id="Line_6" data-name="Line 6" x1="0.25" y1="4.939" transform="translate(12.005 37.807)" fill="none" stroke="#fff" stroke-linecap="round" stroke-linejoin="round" stroke-width="2"/>
          <line id="Line_7" data-name="Line 7" x1="0.259" y2="5.123" transform="translate(27.486 36.188)" fill="none" stroke="#fff" stroke-linecap="round" stroke-linejoin="round" stroke-width="2"/>
          <rect id="Rectangle_295" data-name="Rectangle 295" width="24.476" height="4.348" transform="translate(7.596 23.827)" fill="none" stroke="#fff" stroke-linecap="round" stroke-linejoin="round" stroke-width="2"/>
          <path id="Path_2132" data-name="Path 2132" d="M66.1,176.76l-.258,5.087L58.6,185.529l-7.243-3.681L51.162,178" transform="translate(-38.765 -132.476)" fill="none" stroke="#fff" stroke-linecap="round" stroke-linejoin="round" stroke-width="2"/>
        </g>
      </g>
    </g>
  </g>
</svg>
