<svg xmlns="http://www.w3.org/2000/svg" width="44.224" height="46.295" viewBox="0 0 44.224 46.295"><g transform="translate(-1502.497 -1528.862)"><path d="M1519.421 1695.259a1.093 1.093.0 0 0 .965-1.6l-3.119-5.9v0c-.014-.026-.029-.051-.045-.075l-.012-.02c-.011-.017-.024-.033-.037-.05a1.087 1.087.0 0 0-.239-.232l-.022-.016-.047-.029-.045-.027-.027-.013c-.023-.011-.046-.023-.07-.033h0a1.087 1.087.0 0 0-.241-.068c-.022.0-.043-.008-.065-.01h-.021c-.03.0-.06.0-.09.0h-.023c-.029.0-.057.0-.086.0h-.036l-.069.01-.051.012-.052.013-.064.022-.036.013c-.026.01-.051.023-.076.035l-.02.009h0c-.026.014-.05.029-.075.044l-.021.012c-.017.011-.033.024-.049.036a1.091 1.091.0 0 0-.233.239l-.017.022c-.01.015-.019.031-.028.047s-.019.03-.027.046-.008.018-.013.026a1.084 1.084.0 0 0-.1.315c0 .021-.007.041-.009.062s0 .016.0.023c0 .029.0.058.0.087v26a1.237 1.237.0 0 1-2.455.0v-16.591a1.092 1.092.0 0 0-2.184.0v16.591h0v0h0a1 1 0 0 1-.307.709 1.271 1.271.0 0 1-.894.37 1.225 1.225.0 0 1-1.253-1.083v-26.576a1.092 1.092.0 0 0-2.185.0v8.817c0 .008.0.015.0.022a.672.672.0 0 1-.3.6.625.625.0 0 1-.637.0.636.636.0 0 1-.306-.576v-9.54a3.8 3.8.0 0 1 3.783-3.809h5.844a3.273 3.273.0 0 1 2.888 1.753h0l2.406 4.507a1.092 1.092.0 0 0 1.927-1.029l-2.406-4.507h0a5.454 5.454.0 0 0-4.816-2.91h-5.844a5.987 5.987.0 0 0-5.967 5.993v9.54a2.8 2.8.0 0 0 3.433 2.777v14.941a3.4 3.4.0 0 0 3.438 3.268 3.48 3.48.0 0 1 4.613.0 3.346 3.346.0 0 0 3.412-3.268v-21.6l1.061 2.006A1.093 1.093.0 0 0 1519.421 1695.259z" transform="translate(0 -142.38)"/><path d="M1577.448 1537.625a4.381 4.381.0 1 0-4.381-4.381A4.387 4.387.0 0 0 1577.448 1537.625zm0-6.578a2.2 2.2.0 1 1-2.2 2.2A2.2 2.2.0 0 1 1577.448 1531.047z" transform="translate(-66.036 0)"/><path d="M1911.71 1687.011a6 6 0 0 0-5.993-5.993H1899.9a5.547 5.547.0 0 0-4.844 2.912h0l-2.38 4.507a1.092 1.092.0 1 0 1.932 1.02l2.379-4.5a3.339 3.339.0 0 1 2.915-1.753h5.819a3.813 3.813.0 0 1 3.809 3.809v9.54h0a.633.633.0 0 1-.306.574.625.625.0 0 1-.637.0.7.7.0 0 1-.332-.6v-8.837a1.092 1.092.0 0 0-2.184.0v8.837a2.9 2.9.0 0 0 1.038 2.218 23.5 23.5.0 0 0 1.283 3.3 20.952 20.952.0 0 1-10.793.229 1.092 1.092.0 1 0-.516 2.123q.651.159 1.308.279l.871 9.866c0 .011.0.021.0.032s0 .019.0.029.0.025.006.038v.009a3.334 3.334.0 0 0 3.288 2.775 3.261 3.261.0 0 0 3.235-2.775v-.005c0-.014.005-.028.007-.043s0-.018.0-.027.0-.021.0-.031l.895-9.863a23.276 23.276.0 0 0 3.573-.949h0l.03-.01h.007c.031-.011.063-.024.093-.038l.013-.007.046-.023.017-.01.055-.034.037-.025.049-.038.037-.031.041-.038.038-.038.033-.038c.013-.015.025-.029.036-.044l.027-.038c.011-.016.022-.032.033-.049l.023-.04c.009-.017.019-.034.027-.051s.014-.03.021-.045.014-.033.021-.05.012-.033.017-.05.01-.032.015-.048.009-.037.013-.056.007-.031.009-.046.006-.038.009-.058.0-.031.0-.047.0-.038.0-.057.0-.034.0-.051.0-.035.0-.053.0-.037.0-.056.0-.032-.007-.047-.007-.041-.012-.061-.007-.029-.011-.044-.011-.042-.018-.062l-.006-.019c0-.009-.008-.018-.011-.027s-.014-.036-.022-.054-.017-.036-.026-.053-.008-.017-.012-.026a21.477 21.477.0 0 1-1.3-2.863 2.8 2.8.0 0 0 2.113-2.757v-9.543h0zm-8.073 27.3a1.079 1.079.0 0 1-1.078.936 1.138 1.138.0 0 1-1.131-.936l-.823-9.332q.98.083 1.96.084.961.0 1.918-.08z" transform="translate(-364.989 -142.38)"/><path d="M1988.23 1537.625a4.381 4.381.0 1 0-4.382-4.381A4.386 4.386.0 0 0 1988.23 1537.625zm0-6.578a2.2 2.2.0 1 1-2.2 2.2A2.2 2.2.0 0 1 1988.23 1531.047z" transform="translate(-450.424 0)"/><path d="M1913.267 1788.362a1.091 1.091.0 0 0 1.333-.78 23.5 23.5.0 0 0 .74-5.638.062.062.0 0 0 0-.007s0 0 0-.007v-3.958h0c0-.036.0-.072-.005-.108a.01.01.0 0 1 0 0c0-.035-.009-.07-.016-.1s-.014-.062-.023-.092v-.01c-.008-.027-.018-.054-.029-.08l-.007-.02c-.009-.022-.02-.043-.03-.064l-.016-.033c-.009-.016-.018-.031-.028-.046s-.018-.031-.028-.046l-.022-.03c-.014-.019-.027-.038-.042-.056l-.014-.016c-.018-.021-.037-.042-.057-.062l-.008-.007c-.023-.022-.046-.044-.071-.065s-.055-.043-.084-.062v0c-.029-.02-.06-.038-.091-.055h0l-.011-.006c-.028-.014-.057-.028-.086-.04l-.031-.011c-.023-.009-.046-.017-.07-.024l-.05-.013-.053-.013c-.023.0-.047-.008-.07-.01l-.035-.005c-.031.0-.062.0-.093.0h-.017c-.035.0-.07.0-.1.005h-.006c-.031.0-.062.009-.093.014a1.079 1.079.0 0 0-.1.026h-.009c-.027.008-.053.018-.08.028l-.02.007c-.021.009-.042.02-.063.03l-.034.016-.045.027c-.016.009-.032.018-.047.028l-.028.021c-.019.014-.039.028-.058.043l-.014.013c-.022.019-.044.038-.064.059v0a1.105 1.105.0 0 0-.077.087c-.019.023-.037.046-.053.071v0c-.019.029-.037.059-.054.09h0l-3.145 5.9a1.092 1.092.0 1 0 1.927 1.028l1.079-2.022a21.12 21.12.0 0 1-.658 4.668A1.093 1.093.0 0 0 1913.267 1788.362z" transform="translate(-381.33 -232.083)"/><path d="M1803.027 1801.295a3.009 3.009.0 1 0-3.009-3.009A3.013 3.013.0 0 0 1803.027 1801.295zm0-4.22a1.21 1.21.0 1 1-1.21 1.21A1.212 1.212.0 0 1 1803.027 1797.075z" transform="translate(-278.405 -249.297)"/><path d="M1764.4 1899.714a3.733 3.733.0 0 0-2.7-1.128h-4.351a3.84 3.84.0 0 0-3.835 3.835v5.32a2.04 2.04.0 0 0 2.048 2h.018a2.074 2.074.0 0 0 .267-.018v9.078s0 .005.0.008a2.232 2.232.0 0 0 1.133 1.947 2.269 2.269.0 0 0 2.519-.156 2.252 2.252.0 0 0 .234.156 2.281 2.281.0 0 0 2.284.0 2.231 2.231.0 0 0 1.133-1.947s0-.005.0-.008v-9.392a2.052 2.052.0 0 0 .257.017h.017a2.045 2.045.0 0 0 2.058-2v-5.006h0A3.849 3.849.0 0 0 1764.4 1899.714zm-.987 7.914a.3.3.0 0 1-.2-.084.169.169.0 0 1-.056-.111v-4.171a.9.9.0 1 0-1.8.0v15.546a.447.447.0 0 1-.237.393.477.477.0 0 1-.716-.416v-8.659a.9.9.0 1 0-1.8.0v8.653s0 0 0 0v0a.476.476.0 0 1-.716.416.447.447.0 0 1-.238-.393v-15.546a.9.9.0 1 0-1.8.0v4.489a.157.157.0 0 1-.053.1.306.306.0 0 1-.216.088c-.136.0-.264-.1-.264-.2v-5.32a2.038 2.038.0 0 1 2.036-2.036h4.351a1.947 1.947.0 0 1 1.408.586 2.059 2.059.0 0 1 .575 1.45v5.006C1763.684 1907.516 1763.557 1907.627 1763.41 1907.628z" transform="translate(-234.89 -345.969)"/></g></svg>
